<svg xmlns="http://www.w3.org/2000/svg" xmlns:xlink="http://www.w3.org/1999/xlink" version="1.0" x="0px" y="0px" viewBox="0 0 100 100" enable-background="new 0 0 100 100" xml:space="preserve">
<polygon points="21.667,73.809 21.667,33.867 49.997,17.679 78.334,33.867 78.334,66.13 49.997,82.321 35,73.75 35,41.604   49.997,33.034 65,41.604 65,58.392 49.997,66.963 48.334,66.013 48.334,49.343 56.716,44.551 49.997,40.713 41.667,45.476   41.667,69.88 49.997,74.642 71.667,62.259 71.667,37.737 49.997,25.358 28.334,37.737 28.334,77.617 49.997,90 85,70 85,30   49.997,10 15,30 15,70 "/>
</svg>